# Blender v2.79 (sub 0) OBJ File: 'Arrow.blend'
# www.blender.org
v 0.063848 -0.404912 -0.105000
v 0.495496 0.150017 -0.105000
v 0.063848 -0.112305 -0.105000
v -0.495496 0.404912 -0.105000
v 0.063849 -0.404912 0.105000
v 0.495496 0.150017 0.105000
v 0.063849 -0.112305 0.105000
v -0.495496 0.404912 0.105000
vn -0.0000 -0.0000 -1.0000
vn 0.0000 0.0000 1.0000
vn 0.6288 0.5603 -0.5391
vn -0.0234 -0.8261 0.5629
vn -0.0234 -0.8261 -0.5629
vn 0.0492 0.4899 -0.8704
vn 0.6288 0.5603 0.5391
vn -0.5524 0.6369 -0.5378
vn 0.0492 0.4899 0.8704
vn -0.5524 0.6369 0.5378
s off
f 4//1 3//1 1//1
f 3//1 2//1 1//1
f 7//2 8//2 5//2
f 6//2 7//2 5//2
s 1
f 2//3 5//4 1//5
f 3//6 6//7 2//3
f 4//8 7//9 3//6
f 1//5 8//10 4//8
f 2//3 6//7 5//4
f 3//6 7//9 6//7
f 4//8 8//10 7//9
f 1//5 5//4 8//10
